<?xml version="1.0" encoding="utf-8"?>
<!-- Generator: Adobe Illustrator 18.1.1, SVG Export Plug-In . SVG Version: 6.00 Build 0)  -->
<svg version="1.1" id="Ebene_1" xmlns="http://www.w3.org/2000/svg" xmlns:xlink="http://www.w3.org/1999/xlink" x="0px" y="0px"
	 width="80px" height="80px" viewBox="-29 -170 80 80" enable-background="new -29 -170 80 80" xml:space="preserve">
<g transform="translate(0.000000,900.000000) scale(0.100000,-0.100000)">
	<path d="M-108.9,10669.9c-22.9-11.8-84.3-43.2-151.9-77.7c-14.9-7.6-27.7-14.2-28.3-14.8c-0.9-0.8-1.1-60.9-0.9-225.3
		c0.4-212.9,0.5-224.4,2.3-225.7c1.1-0.8,5.1-3,9-5c3.9-2,15.4-7.8,25.5-13.1c22.5-11.6,42.3-21.8,69.4-35.8
		c22.7-11.6,43.1-22.1,72.5-37.3c10.6-5.5,19.7-9.7,20.3-9.3c0.7,0.4,1.1,40.6,1.1,110.7c0,70.2,0.4,110.2,1.1,110.7
		c0.5,0.3,11-4.4,23-10.6c23.4-12,49.3-25.4,74.1-38.2c8.4-4.3,23.5-12.2,33.6-17.4c10.2-5.2,26-13.5,35.3-18.2s19.9-10.2,23.7-12
		c5.6-2.8,6.7-3.7,6.2-5.5c-0.8-3-0.7-189.5,0.1-208.3c0.4-8.4,1.1-15.6,1.6-16.2c0.5-0.5,14.2,5.8,32.9,15.2
		c17.7,8.9,49.6,25,70.8,35.8c21.4,10.7,51.1,25.7,66,33.3c15,7.6,27.8,13.8,28.4,13.8c1.2,0,88.1,43,103.4,51.1
		c0.9,0.4,22.9,11.4,48.8,24.3c25.9,12.9,48.1,24.3,49,25.2c1.8,1.6,2,9.8,1.8,142.9c-0.1,77.7-0.5,179.4-0.9,226.2l-0.7,85.1
		l-3.7,2.1c-2.1,1.2-11.4,6.1-20.6,10.8c-9.3,4.8-21.3,11.1-26.7,13.9c-5.3,2.8-16.5,8.7-24.8,12.9c-8.2,4.3-20,10.4-26,13.6
		c-6,3.3-17.2,9.1-25.1,13.1c-7.7,4-20.2,10.5-27.7,14.4s-17.7,9.2-22.8,11.8c-5.1,2.6-11.4,6-14,7.5c-2.6,1.4-5.6,2.6-6.7,2.6
		c-1.1,0-9.7-4-19.1-8.8c-9.4-4.9-28.7-14.8-43-22c-14.1-7.2-34.4-17.6-45-23c-10.5-5.4-34.8-17.8-53.9-27.6
		c-19.1-9.7-35.8-18.3-37.1-19.2c-2.2-1.4-2.8-1.4-6,0.5c-3.8,2.3-13.8,7.6-38.8,20.6c-8.7,4.4-20.1,10.4-25.5,13.2
		c-10.3,5.4-28.3,14.8-52.6,27.3c-15.4,8-30.7,15.9-51.7,27.1c-7.1,3.7-15.9,8.2-19.7,10.3c-3.8,2-7.7,3.6-8.7,3.5
		C-91.8,10678.3-99.8,10674.4-108.9,10669.9z M113,10571.8c3.8-2.1,33.5-17.5,50.4-26.3c15.1-7.8,32-16.7,50.4-26.4
		c6.3-3.3,18-9.3,26-13.6c8-4.1,20.3-10.5,27.1-14.1s17.4-9,23.4-12.2c6.1-3,12.2-6.5,13.7-7.7l2.8-2.1l0.8-110.7
		c0.8-106.6,0.7-110.8-1.3-112.5c-1.1-1-27.3-14.5-58.4-30.3c-31-15.6-71.5-36.2-90-45.7c-18.4-9.4-34.4-17.4-35.3-17.8
		c-0.9-0.3-3.4-1.5-5.5-2.7c-7.8-4.1-7.2-14-8.1,109.9l-1,112l-16.3,8.4c-8.9,4.6-23.3,11.9-32,16.4s-24,12.4-34.2,17.6
		c-25.2,13.1-47.6,24.6-68.9,35.7c-37.5,19.3-41.8,21.5-42.6,22.3c-1.4,1.4,3.3,4.1,26.4,15.7c20.9,10.6,31.8,16.1,90.6,46.2
		c61.2,31.2,76.7,39.1,78,39.1C109.8,10573.2,111.5,10572.6,113,10571.8z"/>
</g>
</svg>
