
<svg id="Ebene_1" data-name="Ebene 1" xmlns="http://www.w3.org/2000/svg" xmlns:xlink="http://www.w3.org/1999/xlink" viewBox="0 0 389.341 155.476">
  <defs>
    <style>
      .cls-1 {
        fill: url(#Unbenannter_Verlauf_38);
      }

      .cls-2 {
        fill: #1d1d1b;
      }

      .cls-3 {
        fill: #e5007e;
      }
    </style>
    <linearGradient id="Unbenannter_Verlauf_38" data-name="Unbenannter Verlauf 38" x1="233.865" y1="77.738" x2="389.341" y2="77.738" gradientUnits="userSpaceOnUse">
      <stop offset="0" stop-color="#fff"/>
      <stop offset="0.091" stop-color="#fef9fc"/>
      <stop offset="0.217" stop-color="#fde7f3"/>
      <stop offset="0.364" stop-color="#fac9e4"/>
      <stop offset="0.526" stop-color="#f5a0cf"/>
      <stop offset="0.702" stop-color="#f06bb4"/>
      <stop offset="0.885" stop-color="#e92c94"/>
      <stop offset="1" stop-color="#e5007e"/>
    </linearGradient>
  </defs>
  <title>a9ded8ab-9e40-479e-b087-b868a0847ccb</title>
  <path class="cls-1" d="M311.6,0a77.738,77.738,0,1,0,77.738,77.738A77.738,77.738,0,0,0,311.6,0Zm0,142.372a64.634,64.634,0,1,1,64.634-64.634A64.634,64.634,0,0,1,311.6,142.372Z"/>
  <g>
    <path class="cls-2" d="M20.464,92.044C17.823,89.336,14.282,85,11.135,81.373c-.787-.867-1.236-1.191-1.742-1.137a1.861,1.861,0,0,0-.9.108v6.013c0,3.575.45,3.9,4.046,4.226V91.99H.008V90.582c3.766-.325,4.1-.759,4.1-4.226V60.789c0-3.575-.281-3.9-3.709-4.171v-1.3a42.845,42.845,0,0,0,8.092-1.9V78.935a6.218,6.218,0,0,0,3.541-1.842,42.544,42.544,0,0,0,3.99-4.767c1.18-1.679,1.012-2.113-1.686-2.384V68.535L25.8,68.047V69.4c-3.877.6-5.058,1.138-7.25,3.142-1.4,1.409-2.36,2.438-4.833,5.146,1.405,1.9,6.913,8.125,8.767,9.913,2.079,2,3.259,2.871,5.4,2.979V91.99Z"/>
    <path class="cls-2" d="M29.284,91.99V90.582c3.541-.325,4.046-.65,4.046-4.226V60.735c0-3.684-.337-3.792-3.877-4.117v-1.3a44.547,44.547,0,0,0,8.317-1.9V86.356c0,3.575.449,3.9,4.046,4.226V91.99Z"/>
    <path class="cls-2" d="M63.226,92.64a4.676,4.676,0,0,1-2.642-1.029,5.028,5.028,0,0,1-1.349-2.437c-2.248,1.463-4.945,3.467-6.631,3.467a6.657,6.657,0,0,1-6.744-6.608c0-2.6,1.461-4.279,4.552-5.309,3.372-1.083,7.475-2.546,8.711-3.521v-.921c0-3.954-1.854-6.121-4.721-6.121a3.149,3.149,0,0,0-2.473,1.029,8.411,8.411,0,0,0-1.686,3.521,1.593,1.593,0,0,1-1.63,1.246A2.593,2.593,0,0,1,46.2,73.681c0-.812.674-1.408,1.742-2.167a27.544,27.544,0,0,1,8.374-3.792,7.51,7.51,0,0,1,4.608,1.462c1.967,1.625,2.529,3.792,2.529,6.663V85.869c0,2.438,1.012,3.25,1.967,3.25a4.442,4.442,0,0,0,2.023-.65L68,89.877Zm-4.1-13.6c-1.18.6-3.878,1.733-5.058,2.275-2.191.975-3.428,1.95-3.428,3.955a3.987,3.987,0,0,0,3.99,4.117,7.478,7.478,0,0,0,4.5-1.95Z"/>
    <path class="cls-2" d="M84.412,74.818c-1.124-3.25-3.035-5.363-5.789-5.363a3.532,3.532,0,0,0-3.653,3.738c0,2.383,2.248,3.629,4.721,4.658,4.271,1.679,7.137,3.575,7.137,7.313,0,4.929-4.777,7.475-9.273,7.475A11.208,11.208,0,0,1,71.148,90.8a24.341,24.341,0,0,1-.955-6.392l1.517-.217c.956,3.521,3.484,6.663,6.856,6.663a3.821,3.821,0,0,0,3.99-3.792c0-2.384-1.629-3.629-4.439-4.875-3.372-1.517-7.025-3.3-7.025-7.421,0-3.792,3.372-7.042,8.542-7.042a11.822,11.822,0,0,1,4.945.975,27.528,27.528,0,0,1,1.236,5.742Z"/>
    <path class="cls-2" d="M105.6,74.818c-1.124-3.25-3.035-5.363-5.789-5.363a3.532,3.532,0,0,0-3.653,3.738c0,2.383,2.248,3.629,4.721,4.658,4.271,1.679,7.137,3.575,7.137,7.313,0,4.929-4.777,7.475-9.273,7.475A11.208,11.208,0,0,1,92.334,90.8a24.341,24.341,0,0,1-.955-6.392L92.9,84.19c.956,3.521,3.484,6.663,6.856,6.663a3.821,3.821,0,0,0,3.99-3.792c0-2.384-1.629-3.629-4.439-4.875-3.372-1.517-7.025-3.3-7.025-7.421,0-3.792,3.372-7.042,8.542-7.042a11.822,11.822,0,0,1,4.945.975A27.528,27.528,0,0,1,107,74.439Z"/>
    <path class="cls-2" d="M112.227,91.99V90.582c3.541-.325,3.934-.65,3.934-4.333V75.089c0-3.3-.169-3.575-3.541-4.063v-1.3a35.672,35.672,0,0,0,7.98-2.113V86.248c0,3.683.394,4.008,3.99,4.333V91.99Zm5.845-35.264a2.79,2.79,0,0,1,2.81,2.816,2.826,2.826,0,0,1-2.866,2.763,2.79,2.79,0,1,1,0-5.579Z"/>
    <path class="cls-2" d="M147.854,92.044c-2.641-2.708-6.182-7.042-9.329-10.671-.787-.867-1.236-1.191-1.742-1.137a1.861,1.861,0,0,0-.9.108v6.013c0,3.575.45,3.9,4.046,4.226V91.99H127.4V90.582c3.766-.325,4.1-.759,4.1-4.226V60.789c0-3.575-.281-3.9-3.709-4.171v-1.3a42.845,42.845,0,0,0,8.092-1.9V78.935a6.218,6.218,0,0,0,3.541-1.842,42.544,42.544,0,0,0,3.99-4.767c1.18-1.679,1.012-2.113-1.686-2.384V68.535l11.464-.487V69.4c-3.877.6-5.058,1.138-7.25,3.142-1.4,1.409-2.36,2.438-4.833,5.146,1.405,1.9,6.913,8.125,8.767,9.913,2.079,2,3.259,2.871,5.4,2.979V91.99Z"/>
    <path class="cls-3" d="M163.475,68.372V67.235a15.176,15.176,0,0,1,.619-4.55,13.565,13.565,0,0,1,4.327-6.392,12.139,12.139,0,0,1,6.182-2.871,6.38,6.38,0,0,1,4.439,1.788,1.793,1.793,0,0,1,.281,1.95,3.123,3.123,0,0,1-1.068,1.3,1.018,1.018,0,0,1-1.517-.163,6.773,6.773,0,0,0-4.552-2,3.343,3.343,0,0,0-2.979,1.571c-.73,1.083-1.349,3.684-1.292,8.342v2.167h6.631a1.93,1.93,0,0,1-.562,2.167h-6.069V86.086c0,3.954.394,4.117,4.833,4.55V91.99H159.485V90.582c3.6-.325,3.99-.65,3.99-4.171V70.539h-3.934l-.225-.6,1.517-1.571Z"/>
    <path class="cls-3" d="M196.968,87.44c-3.541,4.225-7.419,5.2-9.161,5.2-6.912,0-10.958-5.417-10.958-11.538a13.536,13.536,0,0,1,3.709-9.426,11.767,11.767,0,0,1,8.2-3.954h.056a8.533,8.533,0,0,1,8.43,8.18c0,1.083-.225,1.517-1.292,1.733-.9.162-7.98.7-14.724.921.056,7.367,4.5,10.4,8.429,10.4a9.478,9.478,0,0,0,6.463-2.708Zm-9.554-17.713c-2.529,0-5.058,2.275-5.9,6.608,3.147,0,6.293-.054,9.553-.163,1.012,0,1.349-.271,1.349-1.029a5.038,5.038,0,0,0-4.945-5.417Z"/>
    <path class="cls-3" d="M231.3,91.99a5.417,5.417,0,0,1-2.248.65c-3.6,0-5.563-2.167-5.563-6.446V70.539h-3.6l-.281-.6,1.63-1.571h2.248V65.393c0-4.333-1.293-6.879-5.171-6.825-3.034,0-5.227,2.275-5.227,6.229a7.018,7.018,0,0,0,.73,3.467,4.4,4.4,0,0,1,.9.379,25.007,25.007,0,0,1,1.068,4.6l-1.518.433c-1.012-2.383-2.529-4.225-5-4.225a3.549,3.549,0,0,0-3.709,3.629c0,2.329,2.023,3.629,4.608,4.712,4.215,1.733,7.137,3.684,7.137,7.367,0,4.983-4.833,7.475-9.385,7.475a11.465,11.465,0,0,1-6.687-1.95,39.184,39.184,0,0,1-.787-6.392l1.462-.271c1.067,3.629,3.652,6.825,7.08,6.825a3.738,3.738,0,0,0,4.047-3.792c0-2.384-1.687-3.792-4.608-5.038-3.315-1.409-6.8-3.359-6.8-7.259,0-3.792,3.372-7.042,8.654-7.042a8.361,8.361,0,0,1,1.349.108,7.067,7.067,0,0,1-.9-3.575c0-4.767,3.766-8.125,8.768-8.125,4.721,0,8.43,2.059,8.43,9.046v3.2h6.294a1.605,1.605,0,0,1-.394,2.167h-5.9V84.3c0,4.388,1.854,5.254,3.315,5.254a7.76,7.76,0,0,0,3.428-.921l.563,1.517Z"/>
    <path class="cls-3" d="M237.37,91.99V90.582c3.541-.325,3.935-.65,3.935-4.333V75.089c0-3.3-.169-3.575-3.541-4.063v-1.3a35.677,35.677,0,0,0,7.98-2.113V86.248c0,3.683.394,4.008,3.99,4.333V91.99Zm5.845-35.264a2.79,2.79,0,0,1,2.811,2.816,2.826,2.826,0,0,1-2.866,2.763,2.79,2.79,0,1,1,0-5.579Z"/>
    <path class="cls-3" d="M277.944,69.781c-2.979.379-3.428.867-4.945,4.063-1.91,4.063-4.833,10.726-7.979,18.742h-1.574c-2.473-6.5-5.058-12.621-7.755-18.9-1.293-3.087-1.687-3.467-4.721-3.9V68.372h11.52v1.409c-3.035.379-3.147.758-2.248,3.087,1.405,3.792,3.709,9.479,5.339,13.326,1.967-4.442,3.766-9.317,5-12.838.9-2.6.562-3.2-2.642-3.575V68.372h10Z"/>
    <path class="cls-3" d="M297.443,92.64A4.675,4.675,0,0,1,294.8,91.61a5.026,5.026,0,0,1-1.35-2.437c-2.247,1.463-4.945,3.467-6.631,3.467a6.657,6.657,0,0,1-6.744-6.608c0-2.6,1.462-4.279,4.553-5.309,3.371-1.083,7.474-2.546,8.71-3.521v-.921c0-3.954-1.854-6.121-4.721-6.121a3.15,3.15,0,0,0-2.473,1.029,8.412,8.412,0,0,0-1.686,3.521,1.593,1.593,0,0,1-1.63,1.246,2.592,2.592,0,0,1-2.416-2.275c0-.812.674-1.408,1.742-2.167a27.535,27.535,0,0,1,8.373-3.792,7.511,7.511,0,0,1,4.608,1.462c1.967,1.625,2.529,3.792,2.529,6.663V85.869c0,2.438,1.011,3.25,1.967,3.25a4.438,4.438,0,0,0,2.022-.65l.563,1.408Zm-4.1-13.6c-1.18.6-3.877,1.733-5.058,2.275-2.191.975-3.428,1.95-3.428,3.955a3.987,3.987,0,0,0,3.99,4.117,7.476,7.476,0,0,0,4.5-1.95Z"/>
    <path class="cls-3" d="M304.466,91.99V90.582c3.541-.325,4.047-.65,4.047-4.226V60.735c0-3.684-.338-3.792-3.878-4.117v-1.3a44.556,44.556,0,0,0,8.317-1.9V86.356c0,3.575.449,3.9,4.046,4.226V91.99Z"/>
    <path class="cls-2" d="M20.245,139.044c-2.614-2.681-6.118-6.969-9.233-10.56-.779-.858-1.224-1.179-1.724-1.126a1.837,1.837,0,0,0-.89.107v5.95c0,3.538.445,3.86,4,4.181v1.394H0V137.6c3.726-.321,4.06-.751,4.06-4.181v-25.3c0-3.538-.278-3.859-3.671-4.127V102.7A42.481,42.481,0,0,0,8.4,100.824v25.248a6.154,6.154,0,0,0,3.5-1.823,42.04,42.04,0,0,0,3.949-4.717c1.168-1.662,1-2.09-1.668-2.358v-1.394l11.346-.482v1.34c-3.838.59-5.006,1.126-7.175,3.109-1.391,1.394-2.336,2.412-4.783,5.092,1.39,1.876,6.841,8.041,8.676,9.81,2.058,1.983,3.226,2.841,5.339,2.948v1.394Z"/>
    <path class="cls-2" d="M55.507,137.7a40.659,40.659,0,0,0-4.282.857c-1.446.375-2.837.75-3.894,1.072L47,139.311v-3.859a35.676,35.676,0,0,1-4.116,2.841,8.146,8.146,0,0,1-4.283,1.341c-3.727,0-6.9-2.2-6.9-7.987V121.14c0-2.841-.445-3.163-1.835-3.431l-1.558-.322V116.1c1.168-.053,2.559-.161,4-.268,1.5-.214,3.059-.429,3.949-.589-.167,1.662-.167,4.181-.167,7.719V130.2c0,4.771,2.392,6.058,4.895,6.058A8.8,8.8,0,0,0,47,133.683V121.14c0-2.841-.5-3.163-2.336-3.431l-2-.322V116.1c1.5-.053,3.393-.214,5.006-.321,1.557-.161,2.892-.375,3.726-.536v17.85c0,2.68.445,3,2.614,3.163l1.5.053ZM36.375,105.755a2.627,2.627,0,1,1-2.67,2.68,2.669,2.669,0,0,1,2.614-2.68Zm9.4,0a2.627,2.627,0,1,1-2.67,2.68,2.669,2.669,0,0,1,2.614-2.68Z"/>
    <path class="cls-2" d="M73.027,122c-1.112-3.216-3-5.307-5.729-5.307a3.5,3.5,0,0,0-3.615,3.7c0,2.358,2.225,3.591,4.672,4.61,4.227,1.662,7.063,3.538,7.063,7.237,0,4.878-4.728,7.4-9.177,7.4a11.086,11.086,0,0,1-6.34-1.823,24.047,24.047,0,0,1-.946-6.325l1.5-.214c.945,3.484,3.448,6.593,6.785,6.593a3.781,3.781,0,0,0,3.949-3.752c0-2.358-1.613-3.591-4.394-4.824-3.337-1.5-6.952-3.27-6.952-7.344,0-3.752,3.337-6.969,8.454-6.969a11.7,11.7,0,0,1,4.895.965,27.253,27.253,0,0,1,1.224,5.682Z"/>
    <path class="cls-2" d="M94,138.99V137.6c3.282-.321,3.671-.751,3.671-4.449v-8.9c0-3.7-1.334-6.111-5.061-6.111-2.225,0-4.394,1.34-6.062,2.734v12.543c0,3.645.333,3.86,3.615,4.181v1.394H78.089V137.6c3.782-.375,4.06-.644,4.06-4.181V122.373c0-3.431-.333-3.592-3.337-4.127v-1.233a34.417,34.417,0,0,0,7.731-2.2V119.1c1.112-.8,2.336-1.608,3.727-2.52a8.73,8.73,0,0,1,4.616-1.608c4.449,0,7.175,2.948,7.175,8.094v10.346c0,3.645.333,3.86,3.56,4.181v1.394Z"/>
    <path class="cls-2" d="M126.7,139.633a4.63,4.63,0,0,1-2.614-1.019,4.981,4.981,0,0,1-1.335-2.412c-2.225,1.447-4.895,3.431-6.563,3.431a6.589,6.589,0,0,1-6.674-6.54c0-2.573,1.446-4.235,4.505-5.253,3.337-1.072,7.4-2.52,8.621-3.484v-.912c0-3.913-1.835-6.057-4.672-6.057a3.117,3.117,0,0,0-2.447,1.019,8.317,8.317,0,0,0-1.668,3.484,1.577,1.577,0,0,1-1.613,1.233,2.566,2.566,0,0,1-2.392-2.251c0-.8.667-1.394,1.724-2.144a27.252,27.252,0,0,1,8.287-3.752,7.433,7.433,0,0,1,4.561,1.447c1.947,1.608,2.5,3.752,2.5,6.593v9.917c0,2.412,1,3.216,1.947,3.216a4.394,4.394,0,0,0,2-.644l.556,1.394Zm-4.06-13.455c-1.168.59-3.837,1.715-5.005,2.251-2.169.965-3.393,1.93-3.393,3.913a3.946,3.946,0,0,0,3.949,4.074,7.4,7.4,0,0,0,4.449-1.93Z"/>
    <path class="cls-2" d="M154.9,134.166c-2.447,3.109-6.174,5.468-9.455,5.468a10.9,10.9,0,0,1-11.179-11.15c0-4.074,1.891-7.666,5.617-10.453a15.322,15.322,0,0,1,8.343-3.056h.056a8.552,8.552,0,0,1,5.006,1.447,1.868,1.868,0,0,1,.89,1.608,2.641,2.641,0,0,1-1.835,2.3c-.333,0-.612-.161-1.057-.589a8.261,8.261,0,0,0-5.618-2.2c-3.5,0-6.841,2.895-6.841,8.523,0,7.451,5.228,9.917,8.4,9.917,2.336,0,4.171-.643,6.729-3ZM170.3,138.99v-1.447c3.226-.321,3.671-.644,3.671-4.127v-8.738c0-4.4-1.724-6.646-5.506-6.593a7.842,7.842,0,0,0-5.729,2.734v12.6c0,3.484.389,3.806,3.56,4.127v1.447H154.509v-1.447c3.337-.321,3.838-.644,3.838-4.181V108.114c0-3.591-.278-3.752-3.949-4.074V102.7a65.634,65.634,0,0,0,8.343-1.876v18.011c1.946-1.876,4.894-3.806,7.787-3.859,4.672-.107,7.842,2.734,7.842,9.113v9.273c0,3.538.39,3.914,3.671,4.181v1.447Z"/>
    <path class="cls-2" d="M195.444,138.936a5.572,5.572,0,0,1-2.336.7c-3.5,0-5.45-2.091-5.45-6.326V117.763H183.82l-.223-.59,1.558-1.555h2.5v-3.859l3.615-3.591.778.107v7.344h6.285a1.461,1.461,0,0,1-.334,2.145h-5.951v13.723c0,4.288,1.836,5.092,3.281,5.092a7.726,7.726,0,0,0,3.393-.858l.5,1.34Z"/>
  </g>
</svg>
